<svg version="1" xmlns="http://www.w3.org/2000/svg" xmlns:xlink="http://www.w3.org/1999/xlink" x="0px" y="0px"
  viewBox="0 0 291 291" style="enable-background:new 0 0 291 291;" xml:space="preserve">
  <g>
    <path style="fill:#ff9a00;"
      d="M252,239c-120,57-194,9-242-19c-2-1-7,0-3,5 c15,19,67,65,135,65c68,0,108-37,113-43 C260,241,257,237,252,239z M285,221c-3-4-19-4-29-3 c-10,1-25,7-24,11c0,1,2,0,9,0c7-0,27-3,31,2 c4,5-6,31-8,35c-1,4,0,5,4,2c3-2,9-10,13-20 C285,238,288,224,285,221z" />
    <path style="fill:#484848;"
      d="M221,149V53C221,37,205,0,148,0C91,0,61,35,61,67 l47,4c0,0,10-32,35-32s22,19,22,24v20C135,86,57,95,57,161 c0,71,89,74,119,28c1,1,2,3,4,5c10,11,25,24,25,24 l36-36C242,183,221,167,221,149z M112,152c0-30,32-36,54-37v26 C167,193,112,185,112,152z" />
  </g>
</svg>
