<?xml version="1.0" ?><svg data-name="Layer 1" height="24" id="Layer_1" viewBox="0 0 24 24" width="24" xmlns="http://www.w3.org/2000/svg"><title/><path d="M17,19H7a2.99994,2.99994,0,0,1-3-3H4c0-.3052.5917-.6948.5917-1S4,14.5781,4,14V13a7,7,0,0,1,7-7h2a7,7,0,0,1,7,7v1c0,.5156-.5917.6948-.5917,1S20,15.5469,20,16h0A2.99994,2.99994,0,0,1,17,19Z" style="fill:#d9e3e6"/><path d="M14.5,22h-5A1.5,1.5,0,0,1,8,20.5V18c.75,0,1.8116-.676,2.8367-2.0694a1.86242,1.86242,0,0,1,2.3266,0C14.1883,17.3239,15.25,18,16,18v2.5A1.5,1.5,0,0,1,14.5,22Z" style="fill:#d9e3e6"/><path d="M10.7698,18.6549h0a6.56476,6.56476,0,0,1,.7539-1.4853.53563.53563,0,0,1,.9154,0,6.54136,6.54136,0,0,1,.7544,1.4853.53554.53554,0,0,1-.5248.6758c-.5243,0-.3989-.6083-.6687-.6036-.2835.0053-.1971.6036-.7059.6036a.53491.53491,0,0,1-.5243-.6758Z" style="fill:#738394"/><path d="M18.024,16.1795h-.0001c-.2283.4844-.957.5879-2.0464.6252-1.0267.0344-1.8052.396-2.2926-1.7242-.1513-.5448.9017-.9504,2.1202-1.4622C18.4963,12.488,18.5833,15.5192,18.024,16.1795Z" style="fill:#738394"/><path d="M5.9464,16.1795h0c.2284.4844.957.5879,2.0465.6252,1.0266.0344,1.8052.396,2.2926-1.7242.1513-.5448-.9017-.9504-2.1202-1.4622C5.474,12.488,5.387,15.5192,5.9464,16.1795Z" style="fill:#738394"/><rect height="1" style="fill:#738394" width="1" x="11.5" y="21"/><rect height="1" style="fill:#738394" width="1" x="9.5" y="21"/><rect height="1" style="fill:#738394" width="1" x="13.5" y="21"/><rect height="3" style="fill:#fa6d62" width="16" x="4" y="10"/><path d="M21,11H3a1,1,0,0,1-1-1H2A2,2,0,0,1,4,8H20a2,2,0,0,1,2,2h0A1,1,0,0,1,21,11Z" style="fill:#4b5661"/><path d="M19,10H5V9a7,7,0,0,1,7-7h0a7,7,0,0,1,7,7Z" style="fill:#4b5661"/><rect height="1.49988" style="fill:#fff" transform="translate(-1.5992 10.60354) rotate(-45)" width="4.99985" x="9.50008" y="6.48224"/><rect height="4.99985" style="fill:#fff" transform="translate(-1.59944 10.60257) rotate(-44.99595)" width="1.49988" x="11.25006" y="4.73225"/></svg>